<svg width="177" height="177" viewBox="0 0 177 177" fill="none" xmlns="http://www.w3.org/2000/svg">
<mask id="mask0_863_1573" style="mask-type:alpha" maskUnits="userSpaceOnUse" x="0" y="0" width="177" height="177">
<circle cx="88.5" cy="88.5" r="88.5" fill="#4318FF"/>
</mask>
<g mask="url(#mask0_863_1573)">
<circle cx="88.5" cy="88.5" r="86.5" fill="#D9D9D9" stroke="white" stroke-width="4"/>
</g>
<path d="M112.667 126.5V118.167C112.667 113.746 110.911 109.507 107.785 106.382C104.66 103.256 100.42 101.5 96.0001 101.5H66.8334C62.4131 101.5 58.1739 103.256 55.0483 106.382C51.9227 109.507 50.1667 113.746 50.1667 118.167V126.5M129.333 72.3333V97.3333M141.833 84.8333H116.833M98.0834 68.1667C98.0834 77.3714 90.6215 84.8333 81.4167 84.8333C72.212 84.8333 64.7501 77.3714 64.7501 68.1667C64.7501 58.9619 72.212 51.5 81.4167 51.5C90.6215 51.5 98.0834 58.9619 98.0834 68.1667Z" stroke="#1E1E1E" stroke-width="4" stroke-linecap="round" stroke-linejoin="round"/>
</svg>
