<svg width="21" height="20" viewBox="0 0 21 20" fill="none" xmlns="http://www.w3.org/2000/svg">
<path d="M4.66667 15.8333H5.85417L14 7.6875L12.8125 6.5L4.66667 14.6458V15.8333ZM3 17.5V13.9583L14 2.97917C14.1667 2.82639 14.3507 2.70833 14.5521 2.625C14.7535 2.54167 14.9653 2.5 15.1875 2.5C15.4097 2.5 15.625 2.54167 15.8333 2.625C16.0417 2.70833 16.2222 2.83333 16.375 3L17.5208 4.16667C17.6875 4.31944 17.809 4.5 17.8854 4.70833C17.9618 4.91667 18 5.125 18 5.33333C18 5.55556 17.9618 5.76736 17.8854 5.96875C17.809 6.17014 17.6875 6.35417 17.5208 6.52083L6.54167 17.5H3ZM13.3958 7.10417L12.8125 6.5L14 7.6875L13.3958 7.10417Z" fill="white"/>
</svg>
